<svg width="238.752" height="25.7762" viewBox="0 0 238.752 25.7762" fill="none" xmlns="http://www.w3.org/2000/svg">
<g id="Group 26092002">
<path id="Vector" d="M70.9069 2.59786L66.9259 19.6385L62.6039 2.59786H58.8659L54.6079 19.6087L50.5928 2.59786H46.7354L52.3233 24.2077H56.4577L60.7498 7.50376L65.0121 24.2077H69.1465L74.7344 2.59786H70.9069Z" fill="white"/>
<path id="Vector_2" d="M87.8464 20.687V14.0165C87.8464 10.2487 85.7451 8.2454 81.5467 8.2454C77.8428 8.2454 75.0936 10.0654 74.6631 13.5264H78.2434C78.4608 11.83 79.6628 10.9647 81.5169 10.9647C83.371 10.9647 84.2959 11.9834 84.2959 13.2493C84.2959 13.9611 84.0188 14.5451 82.8765 14.7326L79.8801 15.1631C77.2546 15.5936 74.109 16.4588 74.109 20.1031C74.109 22.8182 76.0867 24.6126 79.1428 24.6126C81.1801 24.6126 83.2175 23.871 84.5772 21.8975V22.2385C84.5772 23.4447 85.566 24.2162 87.1388 24.2162H89.4234V21.4074H88.588C88.1575 21.4074 87.8464 21.1303 87.8464 20.6956V20.687ZM84.2959 17.2942C84.2959 19.8559 82.7828 21.8933 80.3149 21.8933C78.7719 21.8933 77.7533 21.1218 77.7533 19.7323C77.7533 18.3428 78.6185 17.6651 80.5621 17.3241L82.8765 16.9234C83.4008 16.7998 83.8356 16.7061 84.2959 16.4588V17.2942Z" fill="white"/>
<path id="Vector_3" d="M94.4788 2.59786H90.8984V24.2077H94.4788V2.59786Z" fill="white"/>
<path id="Vector_4" d="M100.581 2.59786H97.0005V24.2077H100.581V2.59786Z" fill="white"/>
<path id="Vector_5" d="M109.856 8.24539C105.223 8.24539 102.29 11.766 102.29 16.429C102.29 21.092 105.223 24.6083 109.856 24.6083C113.93 24.6083 116.339 22.2939 116.833 19.3274H113.312C112.818 20.9342 111.646 21.7952 109.885 21.7952C107.294 21.7952 106.088 19.8815 105.87 17.3198H117.016C117.264 10.5897 113.93 8.24113 109.856 8.24113V8.24539ZM105.934 14.9159C106.275 12.7251 107.477 11.0244 109.856 11.0244C112.017 11.0244 113.312 12.1965 113.5 14.9159H105.934Z" fill="white"/>
<path id="Vector_6" d="M123.33 19.5788V11.3994H126.663V8.65025H123.33V3.49288H119.749V7.87878C119.749 8.3732 119.472 8.65025 119.008 8.65025H117.311V11.3994H119.749V20.3545C119.749 23.0398 121.075 24.2119 123.671 24.2119H127.038V21.403H124.941C123.735 21.403 123.334 20.8788 123.334 19.583L123.33 19.5788Z" fill="white"/>
<path id="Vector_7" d="M138.426 21.3988C134.692 21.3988 132.314 18.0955 132.314 13.4027C132.314 8.70991 134.628 5.40663 138.426 5.40663C141.358 5.40663 143.178 7.35024 143.707 10.1932H147.598C147.104 5.59417 143.894 2.19712 138.43 2.19712C132.659 2.19712 128.397 6.58302 128.397 13.4027C128.397 20.2224 132.595 24.6083 138.43 24.6083C143.306 24.6083 146.95 21.9529 147.786 16.5184H143.894C143.43 19.4509 141.363 21.3945 138.43 21.3945L138.426 21.3988Z" fill="white"/>
<path id="Vector_8" d="M156.521 8.2454C151.674 8.2454 148.866 11.7661 148.866 16.429C148.866 21.092 151.674 24.6083 156.521 24.6083C161.367 24.6083 164.146 21.1218 164.146 16.429C164.146 11.7362 161.367 8.2454 156.521 8.2454ZM156.521 21.7057C153.648 21.7057 152.54 19.2038 152.54 16.3949C152.54 13.5861 153.652 11.148 156.521 11.148C159.389 11.148 160.502 13.6159 160.502 16.3949C160.502 19.1739 159.389 21.7057 156.521 21.7057Z" fill="white"/>
<path id="Vector_9" d="M174.549 8.2454C172.452 8.2454 170.445 9.23425 169.392 10.9946V8.65032H165.812V24.212H169.392V15.4444C169.392 13.0362 171.058 11.2461 173.249 11.2461C175.227 11.2461 176.523 12.5418 176.523 14.8903V24.2162H180.103V14.4598C180.103 10.5087 178.036 8.25392 174.545 8.25392L174.549 8.2454Z" fill="white"/>
<path id="Vector_10" d="M191.237 8.2454C189.14 8.2454 187.133 9.23425 186.08 10.9946V8.65032H182.499V24.212H186.08V15.4444C186.08 13.0362 187.746 11.2461 189.937 11.2461C191.915 11.2461 193.211 12.5418 193.211 14.8903V24.2162H196.791V14.4598C196.791 10.5087 194.724 8.25392 191.233 8.25392L191.237 8.2454Z" fill="white"/>
<path id="Vector_11" d="M205.915 8.24539C201.282 8.24539 198.35 11.766 198.35 16.429C198.35 21.092 201.282 24.6083 205.915 24.6083C209.99 24.6083 212.398 22.2939 212.893 19.3274H209.372C208.878 20.9342 207.706 21.7952 205.945 21.7952C203.354 21.7952 202.148 19.8815 201.93 17.3198H213.076C213.323 10.5897 209.99 8.24113 205.915 8.24113V8.24539ZM201.994 14.9159C202.335 12.7251 203.537 11.0244 205.915 11.0244C208.076 11.0244 209.372 12.1965 209.56 14.9159H201.994Z" fill="white"/>
<path id="Vector_12" d="M221.626 11.148C223.356 11.148 224.622 12.2605 224.993 14.2041H228.603C228.139 10.4362 225.517 8.2454 221.656 8.2454C216.963 8.2454 214.001 11.7661 214.001 16.429C214.001 21.092 216.963 24.6083 221.656 24.6083C225.701 24.6083 228.109 22.3238 228.603 18.9906H225.023C224.528 20.8106 223.386 21.7057 221.626 21.7057C218.941 21.7057 217.675 19.2677 217.675 16.3949C217.675 13.5221 218.941 11.148 221.626 11.148Z" fill="white"/>
<path id="Vector_13" d="M236.655 21.3988C235.449 21.3988 235.048 20.8745 235.048 19.5788V11.3994H238.382V8.65025H235.048V3.49288H231.468V7.87878C231.468 8.3732 231.191 8.65025 230.726 8.65025H229.03V11.3994H231.468V20.3545C231.468 23.0398 232.794 24.2119 235.389 24.2119H238.752V21.403H236.655V21.3988Z" fill="white"/>
<path id="Vector_14" d="M30.5644 9.89066L34.2342 6.22082C25.9398 -2.07361 15.6336 -2.07361 7.33914 6.22082L11.009 9.89066C17.3172 3.58246 24.2605 3.58246 30.5686 9.89066H30.5644Z" fill="white"/>
<path id="Vector_15" d="M29.3416 18.4407L20.783 9.88205L12.2243 18.4407L3.66557 9.88205L0 13.5476L12.2243 25.7762L20.783 17.2175L29.3416 25.7762L41.5659 13.5476L37.9003 9.88205L29.3416 18.4407Z" fill="white"/>
</g>
</svg>
